<?xml version="1.0" encoding="UTF-8" standalone="no"?>
<!DOCTYPE svg PUBLIC "-//W3C//DTD SVG 1.1//EN" "http://www.w3.org/Graphics/SVG/1.1/DTD/svg11.dtd">
<svg width="100%" height="100%" viewBox="0 0 1080 1080" version="1.1" xmlns="http://www.w3.org/2000/svg" xmlns:xlink="http://www.w3.org/1999/xlink" xml:space="preserve" xmlns:serif="http://www.serif.com/" style="fill-rule:evenodd;clip-rule:evenodd;stroke-linejoin:round;stroke-miterlimit:2;">
    <g transform="matrix(0.787808,0,0,0.787808,-249.523,147.418)">
        <g transform="matrix(0.48936,0.847597,-0.838899,0.484339,675.939,-635.118)">
            <path d="M771.222,247.462C771.222,247.462 785.977,262.37 805.747,282.345C854.965,332.074 874.382,404.448 856.759,472.484C852.682,488.257 850.576,504.62 850.576,521.201C850.576,628.032 936.418,714.764 1042.15,714.764C1147.89,714.764 1233.73,628.032 1233.73,521.201C1233.73,469.865 1213.55,420.632 1177.62,384.332L1313.08,247.462C1384.94,320.062 1425.31,418.529 1425.31,521.201C1425.31,734.862 1253.62,908.327 1042.15,908.327C830.684,908.327 658.999,734.862 658.999,521.201C658.999,418.529 699.367,320.062 771.222,247.462Z" style="fill:rgb(33,104,105);"/>
        </g>
        <g transform="matrix(0.48936,0.847597,-0.838899,0.484339,1195.69,-639.768)">
            <path d="M771.222,247.462C771.222,247.462 785.977,262.37 805.747,282.345C854.965,332.074 874.382,404.448 856.759,472.484C852.682,488.257 850.576,504.62 850.576,521.201C850.576,628.032 936.418,714.764 1042.15,714.764C1147.89,714.764 1233.73,628.032 1233.73,521.201C1233.73,469.865 1213.55,420.632 1177.62,384.332L1313.08,247.462C1384.94,320.062 1425.31,418.529 1425.31,521.201C1425.31,734.862 1253.62,908.327 1042.15,908.327C830.684,908.327 658.999,734.862 658.999,521.201C658.999,418.529 699.367,320.062 771.222,247.462Z" style="fill:rgb(156,197,161);"/>
        </g>
    </g>
</svg>
